<svg xmlns="http://www.w3.org/2000/svg" viewBox="0 0 320 280" fill="none" role="img" aria-hidden="true">
  <rect x="40" y="20" width="120" height="200" rx="16" fill="#E8F0FA" stroke="#023c75" stroke-width="3"/>
  <rect x="58" y="48" width="84" height="84" rx="8" fill="#fff" stroke="#023c75" stroke-width="2"/>
  <rect x="68" y="58" width="20" height="20" fill="#023c75"/>
  <rect x="92" y="58" width="20" height="20" fill="#023c75"/>
  <rect x="116" y="58" width="20" height="20" fill="#023c75"/>
  <rect x="68" y="82" width="20" height="20" fill="#023c75"/>
  <rect x="92" y="82" width="8" height="20" fill="#fff"/>
  <rect x="104" y="82" width="8" height="20" fill="#023c75"/>
  <rect x="116" y="82" width="20" height="20" fill="#023c75"/>
  <rect x="68" y="106" width="20" height="20" fill="#023c75"/>
  <rect x="92" y="106" width="20" height="20" fill="#023c75"/>
  <rect x="116" y="106" width="20" height="20" fill="#023c75"/>
  <path d="M160 120 L240 180" stroke="#55A87A" stroke-width="4" stroke-linecap="round" marker-end="url(#arrow)"/>
  <rect x="200" y="190" width="80" height="50" rx="8" fill="#023c75"/>
  <rect x="210" y="200" width="60" height="8" rx="4" fill="#7dd3fc" opacity="0.8"/>
  <defs>
    <marker id="arrow" markerWidth="8" markerHeight="8" refX="6" refY="3" orient="auto">
      <path d="M0,0 L6,3 L0,6 Z" fill="#55A87A"/>
    </marker>
  </defs>
</svg>
